<svg xmlns="http://www.w3.org/2000/svg" version="1.1" xmlns:xlink="http://www.w3.org/1999/xlink" xmlns:svgjs="http://svgjs.com/svgjs" width="1200" height="900" preserveAspectRatio="none" viewBox="0 0 1200 900"><g mask="url(&quot;#SvgjsMask2974&quot;)" fill="none"><rect width="1200" height="900" x="0" y="0" fill="url(#SvgjsLinearGradient2975)"></rect><path d="M-44.17 654.28L-44.17 654.28" stroke="rgba(66, 152, 71, 1)" stroke-width="1.5"></path><path d="M-44.17 654.28L63.15 679.55" stroke="rgba(66, 152, 71, 1)" stroke-width="1.5"></path><path d="M-44.17 654.28L-67.9 794.86" stroke="rgba(66, 152, 71, 1)" stroke-width="1.5"></path><path d="M-44.17 654.28L69.1 547.45" stroke="rgba(66, 152, 71, 1)" stroke-width="1.5"></path><path d="M-67.9 794.86L-67.9 794.86" stroke="rgba(66, 152, 71, 1)" stroke-width="1.5"></path><path d="M-67.9 794.86L-82.4 961.19" stroke="rgba(66, 152, 71, 1)" stroke-width="1.5"></path><path d="M-67.9 794.86L63.15 679.55" stroke="rgba(66, 152, 71, 1)" stroke-width="1.5"></path><path d="M-82.4 961.19L-82.4 961.19" stroke="rgba(66, 152, 71, 1)" stroke-width="1.5"></path><path d="M-82.4 961.19L44.45 955.61" stroke="rgba(66, 152, 71, 1)" stroke-width="1.5"></path><path d="M-82.4 961.19L111.92 837.96" stroke="rgba(66, 152, 71, 1)" stroke-width="1.5"></path><path d="M-82.4 961.19L-44.17 654.28" stroke="rgba(66, 152, 71, 1)" stroke-width="1.5"></path><path d="M69.1 547.45L69.1 547.45" stroke="rgba(66, 152, 71, 1)" stroke-width="1.5"></path><path d="M69.1 547.45L63.15 679.55" stroke="rgba(66, 152, 71, 1)" stroke-width="1.5"></path><path d="M69.1 547.45L199.73 653.87" stroke="rgba(66, 152, 71, 1)" stroke-width="1.5"></path><path d="M69.1 547.45L-67.9 794.86" stroke="rgba(66, 152, 71, 1)" stroke-width="1.5"></path><path d="M69.1 547.45L111.92 837.96" stroke="rgba(66, 152, 71, 1)" stroke-width="1.5"></path><path d="M63.15 679.55L63.15 679.55" stroke="rgba(66, 152, 71, 1)" stroke-width="1.5"></path><path d="M111.92 837.96L111.92 837.96" stroke="rgba(66, 152, 71, 1)" stroke-width="1.5"></path><path d="M111.92 837.96L44.45 955.61" stroke="rgba(66, 152, 71, 1)" stroke-width="1.5"></path><path d="M111.92 837.96L260.8 820.22" stroke="rgba(66, 152, 71, 1)" stroke-width="1.5"></path><path d="M111.92 837.96L230.92 941.17" stroke="rgba(66, 152, 71, 1)" stroke-width="1.5"></path><path d="M111.92 837.96L63.15 679.55" stroke="rgba(66, 152, 71, 1)" stroke-width="1.5"></path><path d="M111.92 837.96L-67.9 794.86" stroke="rgba(66, 152, 71, 1)" stroke-width="1.5"></path><path d="M44.45 955.61L44.45 955.61" stroke="rgba(66, 152, 71, 1)" stroke-width="1.5"></path><path d="M44.45 955.61L230.92 941.17" stroke="rgba(66, 152, 71, 1)" stroke-width="1.5"></path><path d="M44.45 955.61L-67.9 794.86" stroke="rgba(66, 152, 71, 1)" stroke-width="1.5"></path><path d="M44.45 955.61L260.8 820.22" stroke="rgba(66, 152, 71, 1)" stroke-width="1.5"></path><path d="M199.73 653.87L199.73 653.87" stroke="rgba(66, 152, 71, 1)" stroke-width="1.5"></path><path d="M199.73 653.87L63.15 679.55" stroke="rgba(66, 152, 71, 1)" stroke-width="1.5"></path><path d="M260.8 820.22L260.8 820.22" stroke="rgba(66, 152, 71, 1)" stroke-width="1.5"></path><path d="M260.8 820.22L230.92 941.17" stroke="rgba(66, 152, 71, 1)" stroke-width="1.5"></path><path d="M260.8 820.22L377.16 705.45" stroke="rgba(66, 152, 71, 1)" stroke-width="1.5"></path><path d="M260.8 820.22L383.69 940.7" stroke="rgba(66, 152, 71, 1)" stroke-width="1.5"></path><path d="M260.8 820.22L199.73 653.87" stroke="rgba(66, 152, 71, 1)" stroke-width="1.5"></path><path d="M260.8 820.22L63.15 679.55" stroke="rgba(66, 152, 71, 1)" stroke-width="1.5"></path><path d="M230.92 941.17L230.92 941.17" stroke="rgba(66, 152, 71, 1)" stroke-width="1.5"></path><path d="M230.92 941.17L383.69 940.7" stroke="rgba(66, 152, 71, 1)" stroke-width="1.5"></path><path d="M230.92 941.17L377.16 705.45" stroke="rgba(66, 152, 71, 1)" stroke-width="1.5"></path><path d="M403.87 511.45L403.87 511.45" stroke="rgba(66, 152, 71, 1)" stroke-width="1.5"></path><path d="M403.87 511.45L494.95 404.78" stroke="rgba(66, 152, 71, 1)" stroke-width="1.5"></path><path d="M403.87 511.45L546.49 502.83" stroke="rgba(66, 152, 71, 1)" stroke-width="1.5"></path><path d="M377.16 705.45L377.16 705.45" stroke="rgba(66, 152, 71, 1)" stroke-width="1.5"></path><path d="M377.16 705.45L199.73 653.87" stroke="rgba(66, 152, 71, 1)" stroke-width="1.5"></path><path d="M377.16 705.45L403.87 511.45" stroke="rgba(66, 152, 71, 1)" stroke-width="1.5"></path><path d="M383.69 940.7L383.69 940.7" stroke="rgba(66, 152, 71, 1)" stroke-width="1.5"></path><path d="M383.69 940.7L542.62 944.1" stroke="rgba(66, 152, 71, 1)" stroke-width="1.5"></path><path d="M494.95 404.78L494.95 404.78" stroke="rgba(66, 152, 71, 1)" stroke-width="1.5"></path><path d="M494.95 404.78L546.49 502.83" stroke="rgba(66, 152, 71, 1)" stroke-width="1.5"></path><path d="M494.95 404.78L704.83 397.72" stroke="rgba(66, 152, 71, 1)" stroke-width="1.5"></path><path d="M494.95 404.78L700.65 508.18" stroke="rgba(66, 152, 71, 1)" stroke-width="1.5"></path><path d="M546.49 502.83L546.49 502.83" stroke="rgba(66, 152, 71, 1)" stroke-width="1.5"></path><path d="M546.49 502.83L700.65 508.18" stroke="rgba(66, 152, 71, 1)" stroke-width="1.5"></path><path d="M546.49 502.83L704.83 397.72" stroke="rgba(66, 152, 71, 1)" stroke-width="1.5"></path><path d="M546.49 502.83L697.32 677.56" stroke="rgba(66, 152, 71, 1)" stroke-width="1.5"></path><path d="M530.26 859.81L530.26 859.81" stroke="rgba(66, 152, 71, 1)" stroke-width="1.5"></path><path d="M530.26 859.81L542.62 944.1" stroke="rgba(66, 152, 71, 1)" stroke-width="1.5"></path><path d="M530.26 859.81L652.23 830.56" stroke="rgba(66, 152, 71, 1)" stroke-width="1.5"></path><path d="M542.62 944.1L542.62 944.1" stroke="rgba(66, 152, 71, 1)" stroke-width="1.5"></path><path d="M542.62 944.1L670.32 972.18" stroke="rgba(66, 152, 71, 1)" stroke-width="1.5"></path><path d="M707.45 217.54L707.45 217.54" stroke="rgba(66, 152, 71, 1)" stroke-width="1.5"></path><path d="M707.45 217.54L806.26 262.18" stroke="rgba(66, 152, 71, 1)" stroke-width="1.5"></path><path d="M707.45 217.54L793.99 370.14" stroke="rgba(66, 152, 71, 1)" stroke-width="1.5"></path><path d="M707.45 217.54L704.83 397.72" stroke="rgba(66, 152, 71, 1)" stroke-width="1.5"></path><path d="M707.45 217.54L827.74 82.02" stroke="rgba(66, 152, 71, 1)" stroke-width="1.5"></path><path d="M707.45 217.54L494.95 404.78" stroke="rgba(66, 152, 71, 1)" stroke-width="1.5"></path><path d="M707.45 217.54L700.65 508.18" stroke="rgba(66, 152, 71, 1)" stroke-width="1.5"></path><path d="M704.83 397.72L704.83 397.72" stroke="rgba(66, 152, 71, 1)" stroke-width="1.5"></path><path d="M704.83 397.72L793.99 370.14" stroke="rgba(66, 152, 71, 1)" stroke-width="1.5"></path><path d="M704.83 397.72L700.65 508.18" stroke="rgba(66, 152, 71, 1)" stroke-width="1.5"></path><path d="M704.83 397.72L801.45 513.96" stroke="rgba(66, 152, 71, 1)" stroke-width="1.5"></path><path d="M704.83 397.72L806.26 262.18" stroke="rgba(66, 152, 71, 1)" stroke-width="1.5"></path><path d="M700.65 508.18L700.65 508.18" stroke="rgba(66, 152, 71, 1)" stroke-width="1.5"></path><path d="M700.65 508.18L801.45 513.96" stroke="rgba(66, 152, 71, 1)" stroke-width="1.5"></path><path d="M700.65 508.18L793.99 370.14" stroke="rgba(66, 152, 71, 1)" stroke-width="1.5"></path><path d="M700.65 508.18L697.32 677.56" stroke="rgba(66, 152, 71, 1)" stroke-width="1.5"></path><path d="M697.32 677.56L697.32 677.56" stroke="rgba(66, 152, 71, 1)" stroke-width="1.5"></path><path d="M697.32 677.56L822.97 661.85" stroke="rgba(66, 152, 71, 1)" stroke-width="1.5"></path><path d="M697.32 677.56L652.23 830.56" stroke="rgba(66, 152, 71, 1)" stroke-width="1.5"></path><path d="M697.32 677.56L801.45 513.96" stroke="rgba(66, 152, 71, 1)" stroke-width="1.5"></path><path d="M697.32 677.56L823.39 827.64" stroke="rgba(66, 152, 71, 1)" stroke-width="1.5"></path><path d="M652.23 830.56L652.23 830.56" stroke="rgba(66, 152, 71, 1)" stroke-width="1.5"></path><path d="M652.23 830.56L670.32 972.18" stroke="rgba(66, 152, 71, 1)" stroke-width="1.5"></path><path d="M652.23 830.56L542.62 944.1" stroke="rgba(66, 152, 71, 1)" stroke-width="1.5"></path><path d="M652.23 830.56L823.39 827.64" stroke="rgba(66, 152, 71, 1)" stroke-width="1.5"></path><path d="M670.32 972.18L670.32 972.18" stroke="rgba(66, 152, 71, 1)" stroke-width="1.5"></path><path d="M670.32 972.18L825.18 941.64" stroke="rgba(66, 152, 71, 1)" stroke-width="1.5"></path><path d="M833.37 -111.83L833.37 -111.83" stroke="rgba(66, 152, 71, 1)" stroke-width="1.5"></path><path d="M833.37 -111.83L938.3 -93.55" stroke="rgba(66, 152, 71, 1)" stroke-width="1.5"></path><path d="M833.37 -111.83L827.74 82.02" stroke="rgba(66, 152, 71, 1)" stroke-width="1.5"></path><path d="M833.37 -111.83L950.77 47.35" stroke="rgba(66, 152, 71, 1)" stroke-width="1.5"></path><path d="M833.37 -111.83L1133.52 -93.85" stroke="rgba(66, 152, 71, 1)" stroke-width="1.5"></path><path d="M833.37 -111.83L707.45 217.54" stroke="rgba(66, 152, 71, 1)" stroke-width="1.5"></path><path d="M833.37 -111.83L1141.1 72.96" stroke="rgba(66, 152, 71, 1)" stroke-width="1.5"></path><path d="M827.74 82.02L827.74 82.02" stroke="rgba(66, 152, 71, 1)" stroke-width="1.5"></path><path d="M827.74 82.02L950.77 47.35" stroke="rgba(66, 152, 71, 1)" stroke-width="1.5"></path><path d="M806.26 262.18L806.26 262.18" stroke="rgba(66, 152, 71, 1)" stroke-width="1.5"></path><path d="M806.26 262.18L793.99 370.14" stroke="rgba(66, 152, 71, 1)" stroke-width="1.5"></path><path d="M806.26 262.18L827.74 82.02" stroke="rgba(66, 152, 71, 1)" stroke-width="1.5"></path><path d="M793.99 370.14L793.99 370.14" stroke="rgba(66, 152, 71, 1)" stroke-width="1.5"></path><path d="M793.99 370.14L801.45 513.96" stroke="rgba(66, 152, 71, 1)" stroke-width="1.5"></path><path d="M801.45 513.96L801.45 513.96" stroke="rgba(66, 152, 71, 1)" stroke-width="1.5"></path><path d="M801.45 513.96L822.97 661.85" stroke="rgba(66, 152, 71, 1)" stroke-width="1.5"></path><path d="M822.97 661.85L822.97 661.85" stroke="rgba(66, 152, 71, 1)" stroke-width="1.5"></path><path d="M822.97 661.85L940.36 710.22" stroke="rgba(66, 152, 71, 1)" stroke-width="1.5"></path><path d="M822.97 661.85L823.39 827.64" stroke="rgba(66, 152, 71, 1)" stroke-width="1.5"></path><path d="M822.97 661.85L700.65 508.18" stroke="rgba(66, 152, 71, 1)" stroke-width="1.5"></path><path d="M823.39 827.64L823.39 827.64" stroke="rgba(66, 152, 71, 1)" stroke-width="1.5"></path><path d="M823.39 827.64L825.18 941.64" stroke="rgba(66, 152, 71, 1)" stroke-width="1.5"></path><path d="M823.39 827.64L940.36 710.22" stroke="rgba(66, 152, 71, 1)" stroke-width="1.5"></path><path d="M823.39 827.64L961.72 952.7" stroke="rgba(66, 152, 71, 1)" stroke-width="1.5"></path><path d="M825.18 941.64L825.18 941.64" stroke="rgba(66, 152, 71, 1)" stroke-width="1.5"></path><path d="M825.18 941.64L961.72 952.7" stroke="rgba(66, 152, 71, 1)" stroke-width="1.5"></path><path d="M938.3 -93.55L938.3 -93.55" stroke="rgba(66, 152, 71, 1)" stroke-width="1.5"></path><path d="M938.3 -93.55L950.77 47.35" stroke="rgba(66, 152, 71, 1)" stroke-width="1.5"></path><path d="M950.77 47.35L950.77 47.35" stroke="rgba(66, 152, 71, 1)" stroke-width="1.5"></path><path d="M950.77 47.35L1141.1 72.96" stroke="rgba(66, 152, 71, 1)" stroke-width="1.5"></path><path d="M950.77 47.35L1133.52 -93.85" stroke="rgba(66, 152, 71, 1)" stroke-width="1.5"></path><path d="M978.79 348.17L978.79 348.17" stroke="rgba(66, 152, 71, 1)" stroke-width="1.5"></path><path d="M978.79 348.17L997.92 498.62" stroke="rgba(66, 152, 71, 1)" stroke-width="1.5"></path><path d="M978.79 348.17L793.99 370.14" stroke="rgba(66, 152, 71, 1)" stroke-width="1.5"></path><path d="M978.79 348.17L1161.27 398.83" stroke="rgba(66, 152, 71, 1)" stroke-width="1.5"></path><path d="M978.79 348.17L806.26 262.18" stroke="rgba(66, 152, 71, 1)" stroke-width="1.5"></path><path d="M997.92 498.62L997.92 498.62" stroke="rgba(66, 152, 71, 1)" stroke-width="1.5"></path><path d="M997.92 498.62L1137.54 545.57" stroke="rgba(66, 152, 71, 1)" stroke-width="1.5"></path><path d="M997.92 498.62L1096.48 648.19" stroke="rgba(66, 152, 71, 1)" stroke-width="1.5"></path><path d="M997.92 498.62L1161.27 398.83" stroke="rgba(66, 152, 71, 1)" stroke-width="1.5"></path><path d="M997.92 498.62L801.45 513.96" stroke="rgba(66, 152, 71, 1)" stroke-width="1.5"></path><path d="M940.36 710.22L940.36 710.22" stroke="rgba(66, 152, 71, 1)" stroke-width="1.5"></path><path d="M961.72 952.7L961.72 952.7" stroke="rgba(66, 152, 71, 1)" stroke-width="1.5"></path><path d="M961.72 952.7L1107.39 852.92" stroke="rgba(66, 152, 71, 1)" stroke-width="1.5"></path><path d="M961.72 952.7L1160.58 966.82" stroke="rgba(66, 152, 71, 1)" stroke-width="1.5"></path><path d="M961.72 952.7L940.36 710.22" stroke="rgba(66, 152, 71, 1)" stroke-width="1.5"></path><path d="M961.72 952.7L670.32 972.18" stroke="rgba(66, 152, 71, 1)" stroke-width="1.5"></path><path d="M1133.52 -93.85L1133.52 -93.85" stroke="rgba(66, 152, 71, 1)" stroke-width="1.5"></path><path d="M1133.52 -93.85L1251.66 -61" stroke="rgba(66, 152, 71, 1)" stroke-width="1.5"></path><path d="M1133.52 -93.85L1141.1 72.96" stroke="rgba(66, 152, 71, 1)" stroke-width="1.5"></path><path d="M1141.1 72.96L1141.1 72.96" stroke="rgba(66, 152, 71, 1)" stroke-width="1.5"></path><path d="M1141.1 72.96L1262.54 89.52" stroke="rgba(66, 152, 71, 1)" stroke-width="1.5"></path><path d="M1141.1 72.96L1251.66 -61" stroke="rgba(66, 152, 71, 1)" stroke-width="1.5"></path><path d="M1161.27 398.83L1161.27 398.83" stroke="rgba(66, 152, 71, 1)" stroke-width="1.5"></path><path d="M1161.27 398.83L1266.05 371.56" stroke="rgba(66, 152, 71, 1)" stroke-width="1.5"></path><path d="M1161.27 398.83L1137.54 545.57" stroke="rgba(66, 152, 71, 1)" stroke-width="1.5"></path><path d="M1161.27 398.83L1257.69 533.5" stroke="rgba(66, 152, 71, 1)" stroke-width="1.5"></path><path d="M1137.54 545.57L1137.54 545.57" stroke="rgba(66, 152, 71, 1)" stroke-width="1.5"></path><path d="M1137.54 545.57L1096.48 648.19" stroke="rgba(66, 152, 71, 1)" stroke-width="1.5"></path><path d="M1137.54 545.57L1257.69 533.5" stroke="rgba(66, 152, 71, 1)" stroke-width="1.5"></path><path d="M1096.48 648.19L1096.48 648.19" stroke="rgba(66, 152, 71, 1)" stroke-width="1.5"></path><path d="M1096.48 648.19L940.36 710.22" stroke="rgba(66, 152, 71, 1)" stroke-width="1.5"></path><path d="M1107.39 852.92L1107.39 852.92" stroke="rgba(66, 152, 71, 1)" stroke-width="1.5"></path><path d="M1107.39 852.92L1160.58 966.82" stroke="rgba(66, 152, 71, 1)" stroke-width="1.5"></path><path d="M1160.58 966.82L1160.58 966.82" stroke="rgba(66, 152, 71, 1)" stroke-width="1.5"></path><path d="M1160.58 966.82L1309.57 955.88" stroke="rgba(66, 152, 71, 1)" stroke-width="1.5"></path><path d="M1251.66 -61L1251.66 -61" stroke="rgba(66, 152, 71, 1)" stroke-width="1.5"></path><path d="M1251.66 -61L1262.54 89.52" stroke="rgba(66, 152, 71, 1)" stroke-width="1.5"></path><path d="M1251.66 -61L1309.73 190.69" stroke="rgba(66, 152, 71, 1)" stroke-width="1.5"></path><path d="M1251.66 -61L938.3 -93.55" stroke="rgba(66, 152, 71, 1)" stroke-width="1.5"></path><path d="M1251.66 -61L950.77 47.35" stroke="rgba(66, 152, 71, 1)" stroke-width="1.5"></path><path d="M1262.54 89.52L1262.54 89.52" stroke="rgba(66, 152, 71, 1)" stroke-width="1.5"></path><path d="M1262.54 89.52L1309.73 190.69" stroke="rgba(66, 152, 71, 1)" stroke-width="1.5"></path><path d="M1309.73 190.69L1309.73 190.69" stroke="rgba(66, 152, 71, 1)" stroke-width="1.5"></path><path d="M1309.73 190.69L1266.05 371.56" stroke="rgba(66, 152, 71, 1)" stroke-width="1.5"></path><path d="M1309.73 190.69L1141.1 72.96" stroke="rgba(66, 152, 71, 1)" stroke-width="1.5"></path><path d="M1309.73 190.69L1161.27 398.83" stroke="rgba(66, 152, 71, 1)" stroke-width="1.5"></path><path d="M1266.05 371.56L1266.05 371.56" stroke="rgba(66, 152, 71, 1)" stroke-width="1.5"></path><path d="M1266.05 371.56L1257.69 533.5" stroke="rgba(66, 152, 71, 1)" stroke-width="1.5"></path><path d="M1257.69 533.5L1257.69 533.5" stroke="rgba(66, 152, 71, 1)" stroke-width="1.5"></path><path d="M1257.69 533.5L1300.7 655.21" stroke="rgba(66, 152, 71, 1)" stroke-width="1.5"></path><path d="M1300.7 655.21L1300.7 655.21" stroke="rgba(66, 152, 71, 1)" stroke-width="1.5"></path><path d="M1300.7 655.21L1261.56 820.27" stroke="rgba(66, 152, 71, 1)" stroke-width="1.5"></path><path d="M1300.7 655.21L1137.54 545.57" stroke="rgba(66, 152, 71, 1)" stroke-width="1.5"></path><path d="M1261.56 820.27L1261.56 820.27" stroke="rgba(66, 152, 71, 1)" stroke-width="1.5"></path><path d="M1261.56 820.27L1309.57 955.88" stroke="rgba(66, 152, 71, 1)" stroke-width="1.5"></path><path d="M1261.56 820.27L1107.39 852.92" stroke="rgba(66, 152, 71, 1)" stroke-width="1.5"></path><path d="M1309.57 955.88L1309.57 955.88" stroke="rgba(66, 152, 71, 1)" stroke-width="1.5"></path><path d="M1309.57 955.88L1107.39 852.92" stroke="rgba(66, 152, 71, 1)" stroke-width="1.5"></path><path d="M1309.57 955.88L1300.7 655.21" stroke="rgba(66, 152, 71, 1)" stroke-width="1.5"></path><path d="M1309.57 955.88L961.72 952.7" stroke="rgba(66, 152, 71, 1)" stroke-width="1.5"></path><path d="M1309.57 955.88L1096.48 648.19" stroke="rgba(66, 152, 71, 1)" stroke-width="1.5"></path><circle r="5" cx="-44.17" cy="654.28" fill="rgba(66, 152, 71, 1)"></circle><circle r="5" cx="-67.9" cy="794.86" fill="rgba(66, 152, 71, 1)"></circle><circle r="5" cx="-82.4" cy="961.19" fill="rgba(66, 152, 71, 1)"></circle><circle r="5" cx="69.1" cy="547.45" fill="rgba(66, 152, 71, 1)"></circle><circle r="5" cx="63.15" cy="679.55" fill="rgba(66, 152, 71, 1)"></circle><circle r="5" cx="111.92" cy="837.96" fill="rgba(66, 152, 71, 1)"></circle><circle r="5" cx="44.45" cy="955.61" fill="rgba(66, 152, 71, 1)"></circle><circle r="5" cx="199.73" cy="653.87" fill="rgba(66, 152, 71, 1)"></circle><circle r="5" cx="260.8" cy="820.22" fill="rgba(66, 152, 71, 1)"></circle><circle r="5" cx="230.92" cy="941.17" fill="rgba(66, 152, 71, 1)"></circle><circle r="5" cx="403.87" cy="511.45" fill="rgba(66, 152, 71, 1)"></circle><circle r="5" cx="377.16" cy="705.45" fill="rgba(66, 152, 71, 1)"></circle><circle r="5" cx="383.69" cy="940.7" fill="rgba(66, 152, 71, 1)"></circle><circle r="5" cx="494.95" cy="404.78" fill="rgba(66, 152, 71, 1)"></circle><circle r="5" cx="546.49" cy="502.83" fill="rgba(66, 152, 71, 1)"></circle><circle r="5" cx="530.26" cy="859.81" fill="rgba(66, 152, 71, 1)"></circle><circle r="5" cx="542.62" cy="944.1" fill="rgba(66, 152, 71, 1)"></circle><circle r="5" cx="707.45" cy="217.54" fill="rgba(66, 152, 71, 1)"></circle><circle r="5" cx="704.83" cy="397.72" fill="rgba(66, 152, 71, 1)"></circle><circle r="5" cx="700.65" cy="508.18" fill="rgba(66, 152, 71, 1)"></circle><circle r="5" cx="697.32" cy="677.56" fill="rgba(66, 152, 71, 1)"></circle><circle r="5" cx="652.23" cy="830.56" fill="rgba(66, 152, 71, 1)"></circle><circle r="5" cx="670.32" cy="972.18" fill="rgba(66, 152, 71, 1)"></circle><circle r="5" cx="833.37" cy="-111.83" fill="rgba(66, 152, 71, 1)"></circle><circle r="5" cx="827.74" cy="82.02" fill="rgba(66, 152, 71, 1)"></circle><circle r="5" cx="806.26" cy="262.18" fill="rgba(66, 152, 71, 1)"></circle><circle r="5" cx="793.99" cy="370.14" fill="rgba(66, 152, 71, 1)"></circle><circle r="5" cx="801.45" cy="513.96" fill="rgba(66, 152, 71, 1)"></circle><circle r="5" cx="822.97" cy="661.85" fill="rgba(66, 152, 71, 1)"></circle><circle r="5" cx="823.39" cy="827.64" fill="rgba(66, 152, 71, 1)"></circle><circle r="5" cx="825.18" cy="941.64" fill="rgba(66, 152, 71, 1)"></circle><circle r="5" cx="938.3" cy="-93.55" fill="rgba(66, 152, 71, 1)"></circle><circle r="5" cx="950.77" cy="47.35" fill="rgba(66, 152, 71, 1)"></circle><circle r="5" cx="978.79" cy="348.17" fill="rgba(66, 152, 71, 1)"></circle><circle r="5" cx="997.92" cy="498.62" fill="rgba(66, 152, 71, 1)"></circle><circle r="5" cx="940.36" cy="710.22" fill="rgba(66, 152, 71, 1)"></circle><circle r="5" cx="961.72" cy="952.7" fill="rgba(66, 152, 71, 1)"></circle><circle r="5" cx="1133.52" cy="-93.85" fill="rgba(66, 152, 71, 1)"></circle><circle r="5" cx="1141.1" cy="72.96" fill="rgba(66, 152, 71, 1)"></circle><circle r="5" cx="1161.27" cy="398.83" fill="rgba(66, 152, 71, 1)"></circle><circle r="5" cx="1137.54" cy="545.57" fill="rgba(66, 152, 71, 1)"></circle><circle r="5" cx="1096.48" cy="648.19" fill="rgba(66, 152, 71, 1)"></circle><circle r="5" cx="1107.39" cy="852.92" fill="rgba(66, 152, 71, 1)"></circle><circle r="5" cx="1160.58" cy="966.82" fill="rgba(66, 152, 71, 1)"></circle><circle r="5" cx="1251.66" cy="-61" fill="rgba(66, 152, 71, 1)"></circle><circle r="5" cx="1262.54" cy="89.52" fill="rgba(66, 152, 71, 1)"></circle><circle r="5" cx="1309.73" cy="190.69" fill="rgba(66, 152, 71, 1)"></circle><circle r="5" cx="1266.05" cy="371.56" fill="rgba(66, 152, 71, 1)"></circle><circle r="5" cx="1257.69" cy="533.5" fill="rgba(66, 152, 71, 1)"></circle><circle r="5" cx="1300.7" cy="655.21" fill="rgba(66, 152, 71, 1)"></circle><circle r="5" cx="1261.56" cy="820.27" fill="rgba(66, 152, 71, 1)"></circle><circle r="5" cx="1309.57" cy="955.88" fill="rgba(66, 152, 71, 1)"></circle><path d="M220.5 708.44L220.5 708.44" stroke="hsl(225, 16.7%, 100%)" stroke-width="1.5"></path><path d="M220.5 708.44L395.64 831.49" stroke="hsl(225, 16.7%, 100%)" stroke-width="1.5"></path><path d="M220.5 708.44L218.22 993.57" stroke="hsl(225, 16.7%, 100%)" stroke-width="1.5"></path><path d="M220.5 708.44L40.51 946.92" stroke="hsl(225, 16.7%, 100%)" stroke-width="1.5"></path><path d="M680.41 651.88L680.41 651.88" stroke="hsl(225, 16.7%, 100%)" stroke-width="1.5"></path><path d="M680.41 651.88L661.76 525.01" stroke="hsl(225, 16.7%, 100%)" stroke-width="1.5"></path><path d="M680.41 651.88L536.25 701.96" stroke="hsl(225, 16.7%, 100%)" stroke-width="1.5"></path><path d="M680.41 651.88L809.72 558.58" stroke="hsl(225, 16.7%, 100%)" stroke-width="1.5"></path><path d="M680.41 651.88L858.84 637.68" stroke="hsl(225, 16.7%, 100%)" stroke-width="1.5"></path><path d="M680.41 651.88L659.36 833.55" stroke="hsl(225, 16.7%, 100%)" stroke-width="1.5"></path><path d="M659.36 833.55L659.36 833.55" stroke="hsl(225, 16.7%, 100%)" stroke-width="1.5"></path><path d="M659.36 833.55L789.25 821.46" stroke="hsl(225, 16.7%, 100%)" stroke-width="1.5"></path><path d="M659.36 833.55L694.65 966.82" stroke="hsl(225, 16.7%, 100%)" stroke-width="1.5"></path><path d="M659.36 833.55L521 800.97" stroke="hsl(225, 16.7%, 100%)" stroke-width="1.5"></path><path d="M659.36 833.55L536.25 701.96" stroke="hsl(225, 16.7%, 100%)" stroke-width="1.5"></path><path d="M809.72 558.58L809.72 558.58" stroke="hsl(225, 16.7%, 100%)" stroke-width="1.5"></path><path d="M809.72 558.58L858.84 637.68" stroke="hsl(225, 16.7%, 100%)" stroke-width="1.5"></path><path d="M809.72 558.58L661.76 525.01" stroke="hsl(225, 16.7%, 100%)" stroke-width="1.5"></path><path d="M962.16 489.27L962.16 489.27" stroke="hsl(225, 16.7%, 100%)" stroke-width="1.5"></path><path d="M962.16 489.27L988.67 347.91" stroke="hsl(225, 16.7%, 100%)" stroke-width="1.5"></path><path d="M962.16 489.27L809.72 558.58" stroke="hsl(225, 16.7%, 100%)" stroke-width="1.5"></path><path d="M962.16 489.27L858.84 637.68" stroke="hsl(225, 16.7%, 100%)" stroke-width="1.5"></path><path d="M962.16 489.27L1129.77 355.48" stroke="hsl(225, 16.7%, 100%)" stroke-width="1.5"></path><path d="M962.16 489.27L990.11 240.28" stroke="hsl(225, 16.7%, 100%)" stroke-width="1.5"></path><path d="M947.22 960.31L947.22 960.31" stroke="hsl(225, 16.7%, 100%)" stroke-width="1.5"></path><path d="M947.22 960.31L1137.83 1009.49" stroke="hsl(225, 16.7%, 100%)" stroke-width="1.5"></path><path d="M947.22 960.31L789.25 821.46" stroke="hsl(225, 16.7%, 100%)" stroke-width="1.5"></path><path d="M947.22 960.31L1155.21 854.34" stroke="hsl(225, 16.7%, 100%)" stroke-width="1.5"></path><path d="M947.22 960.31L694.65 966.82" stroke="hsl(225, 16.7%, 100%)" stroke-width="1.5"></path><path d="M947.22 960.31L1120.72 711.87" stroke="hsl(225, 16.7%, 100%)" stroke-width="1.5"></path><path d="M947.22 960.31L659.36 833.55" stroke="hsl(225, 16.7%, 100%)" stroke-width="1.5"></path><path d="M1129.77 355.48L1129.77 355.48" stroke="hsl(225, 16.7%, 100%)" stroke-width="1.5"></path><path d="M1129.77 355.48L1144.38 232.31" stroke="hsl(225, 16.7%, 100%)" stroke-width="1.5"></path><path d="M1129.77 355.48L988.67 347.91" stroke="hsl(225, 16.7%, 100%)" stroke-width="1.5"></path><path d="M1129.77 355.48L990.11 240.28" stroke="hsl(225, 16.7%, 100%)" stroke-width="1.5"></path><path d="M1293.18 -64.93L1293.18 -64.93" stroke="hsl(225, 16.7%, 100%)" stroke-width="1.5"></path><path d="M1293.18 -64.93L1143.19 -55.53" stroke="hsl(225, 16.7%, 100%)" stroke-width="1.5"></path><path d="M1310.18 1002.93L1310.18 1002.93" stroke="hsl(225, 16.7%, 100%)" stroke-width="1.5"></path><path d="M1310.18 1002.93L1137.83 1009.49" stroke="hsl(225, 16.7%, 100%)" stroke-width="1.5"></path><path d="M1310.18 1002.93L1282.12 794.94" stroke="hsl(225, 16.7%, 100%)" stroke-width="1.5"></path><path d="M1310.18 1002.93L1155.21 854.34" stroke="hsl(225, 16.7%, 100%)" stroke-width="1.5"></path><path d="M-62.1 847.73L-62.1 847.73" stroke="hsl(225, 16.7%, 100%)" stroke-width="1.5"></path><path d="M-62.1 847.73L-72.03 943.2" stroke="hsl(225, 16.7%, 100%)" stroke-width="1.5"></path><path d="M-62.1 847.73L40.51 946.92" stroke="hsl(225, 16.7%, 100%)" stroke-width="1.5"></path><path d="M-62.1 847.73L220.5 708.44" stroke="hsl(225, 16.7%, 100%)" stroke-width="1.5"></path><path d="M-62.1 847.73L218.22 993.57" stroke="hsl(225, 16.7%, 100%)" stroke-width="1.5"></path><path d="M-72.03 943.2L-72.03 943.2" stroke="hsl(225, 16.7%, 100%)" stroke-width="1.5"></path><path d="M-72.03 943.2L40.51 946.92" stroke="hsl(225, 16.7%, 100%)" stroke-width="1.5"></path><path d="M-72.03 943.2L218.22 993.57" stroke="hsl(225, 16.7%, 100%)" stroke-width="1.5"></path><path d="M-72.03 943.2L220.5 708.44" stroke="hsl(225, 16.7%, 100%)" stroke-width="1.5"></path><path d="M40.51 946.92L40.51 946.92" stroke="hsl(225, 16.7%, 100%)" stroke-width="1.5"></path><path d="M40.51 946.92L218.22 993.57" stroke="hsl(225, 16.7%, 100%)" stroke-width="1.5"></path><path d="M40.51 946.92L389.97 976.28" stroke="hsl(225, 16.7%, 100%)" stroke-width="1.5"></path><path d="M218.22 993.57L218.22 993.57" stroke="hsl(225, 16.7%, 100%)" stroke-width="1.5"></path><path d="M218.22 993.57L389.97 976.28" stroke="hsl(225, 16.7%, 100%)" stroke-width="1.5"></path><path d="M218.22 993.57L395.64 831.49" stroke="hsl(225, 16.7%, 100%)" stroke-width="1.5"></path><path d="M218.22 993.57L489.95 989.55" stroke="hsl(225, 16.7%, 100%)" stroke-width="1.5"></path><path d="M395.64 831.49L395.64 831.49" stroke="hsl(225, 16.7%, 100%)" stroke-width="1.5"></path><path d="M395.64 831.49L521 800.97" stroke="hsl(225, 16.7%, 100%)" stroke-width="1.5"></path><path d="M395.64 831.49L389.97 976.28" stroke="hsl(225, 16.7%, 100%)" stroke-width="1.5"></path><path d="M389.97 976.28L389.97 976.28" stroke="hsl(225, 16.7%, 100%)" stroke-width="1.5"></path><path d="M389.97 976.28L489.95 989.55" stroke="hsl(225, 16.7%, 100%)" stroke-width="1.5"></path><path d="M389.97 976.28L521 800.97" stroke="hsl(225, 16.7%, 100%)" stroke-width="1.5"></path><path d="M536.25 701.96L536.25 701.96" stroke="hsl(225, 16.7%, 100%)" stroke-width="1.5"></path><path d="M536.25 701.96L521 800.97" stroke="hsl(225, 16.7%, 100%)" stroke-width="1.5"></path><path d="M521 800.97L521 800.97" stroke="hsl(225, 16.7%, 100%)" stroke-width="1.5"></path><path d="M489.95 989.55L489.95 989.55" stroke="hsl(225, 16.7%, 100%)" stroke-width="1.5"></path><path d="M489.95 989.55L395.64 831.49" stroke="hsl(225, 16.7%, 100%)" stroke-width="1.5"></path><path d="M661.76 525.01L661.76 525.01" stroke="hsl(225, 16.7%, 100%)" stroke-width="1.5"></path><path d="M661.76 525.01L536.25 701.96" stroke="hsl(225, 16.7%, 100%)" stroke-width="1.5"></path><path d="M661.76 525.01L858.84 637.68" stroke="hsl(225, 16.7%, 100%)" stroke-width="1.5"></path><path d="M661.76 525.01L962.16 489.27" stroke="hsl(225, 16.7%, 100%)" stroke-width="1.5"></path><path d="M694.65 966.82L694.65 966.82" stroke="hsl(225, 16.7%, 100%)" stroke-width="1.5"></path><path d="M694.65 966.82L789.25 821.46" stroke="hsl(225, 16.7%, 100%)" stroke-width="1.5"></path><path d="M858.84 637.68L858.84 637.68" stroke="hsl(225, 16.7%, 100%)" stroke-width="1.5"></path><path d="M858.84 637.68L789.25 821.46" stroke="hsl(225, 16.7%, 100%)" stroke-width="1.5"></path><path d="M789.25 821.46L789.25 821.46" stroke="hsl(225, 16.7%, 100%)" stroke-width="1.5"></path><path d="M789.25 821.46L680.41 651.88" stroke="hsl(225, 16.7%, 100%)" stroke-width="1.5"></path><path d="M992.47 -60.66L992.47 -60.66" stroke="hsl(225, 16.7%, 100%)" stroke-width="1.5"></path><path d="M992.47 -60.66L977.82 64.38" stroke="hsl(225, 16.7%, 100%)" stroke-width="1.5"></path><path d="M992.47 -60.66L1143.19 -55.53" stroke="hsl(225, 16.7%, 100%)" stroke-width="1.5"></path><path d="M992.47 -60.66L1121.19 91.05" stroke="hsl(225, 16.7%, 100%)" stroke-width="1.5"></path><path d="M992.47 -60.66L1293.18 -64.93" stroke="hsl(225, 16.7%, 100%)" stroke-width="1.5"></path><path d="M992.47 -60.66L990.11 240.28" stroke="hsl(225, 16.7%, 100%)" stroke-width="1.5"></path><path d="M977.82 64.38L977.82 64.38" stroke="hsl(225, 16.7%, 100%)" stroke-width="1.5"></path><path d="M977.82 64.38L1121.19 91.05" stroke="hsl(225, 16.7%, 100%)" stroke-width="1.5"></path><path d="M990.11 240.28L990.11 240.28" stroke="hsl(225, 16.7%, 100%)" stroke-width="1.5"></path><path d="M990.11 240.28L988.67 347.91" stroke="hsl(225, 16.7%, 100%)" stroke-width="1.5"></path><path d="M990.11 240.28L1144.38 232.31" stroke="hsl(225, 16.7%, 100%)" stroke-width="1.5"></path><path d="M990.11 240.28L977.82 64.38" stroke="hsl(225, 16.7%, 100%)" stroke-width="1.5"></path><path d="M990.11 240.28L1121.19 91.05" stroke="hsl(225, 16.7%, 100%)" stroke-width="1.5"></path><path d="M988.67 347.91L988.67 347.91" stroke="hsl(225, 16.7%, 100%)" stroke-width="1.5"></path><path d="M1143.19 -55.53L1143.19 -55.53" stroke="hsl(225, 16.7%, 100%)" stroke-width="1.5"></path><path d="M1143.19 -55.53L1121.19 91.05" stroke="hsl(225, 16.7%, 100%)" stroke-width="1.5"></path><path d="M1121.19 91.05L1121.19 91.05" stroke="hsl(225, 16.7%, 100%)" stroke-width="1.5"></path><path d="M1121.19 91.05L1144.38 232.31" stroke="hsl(225, 16.7%, 100%)" stroke-width="1.5"></path><path d="M1144.38 232.31L1144.38 232.31" stroke="hsl(225, 16.7%, 100%)" stroke-width="1.5"></path><path d="M1120.72 711.87L1120.72 711.87" stroke="hsl(225, 16.7%, 100%)" stroke-width="1.5"></path><path d="M1120.72 711.87L1245.72 667.04" stroke="hsl(225, 16.7%, 100%)" stroke-width="1.5"></path><path d="M1120.72 711.87L1155.21 854.34" stroke="hsl(225, 16.7%, 100%)" stroke-width="1.5"></path><path d="M1155.21 854.34L1155.21 854.34" stroke="hsl(225, 16.7%, 100%)" stroke-width="1.5"></path><path d="M1155.21 854.34L1282.12 794.94" stroke="hsl(225, 16.7%, 100%)" stroke-width="1.5"></path><path d="M1155.21 854.34L1137.83 1009.49" stroke="hsl(225, 16.7%, 100%)" stroke-width="1.5"></path><path d="M1155.21 854.34L1245.72 667.04" stroke="hsl(225, 16.7%, 100%)" stroke-width="1.5"></path><path d="M1137.83 1009.49L1137.83 1009.49" stroke="hsl(225, 16.7%, 100%)" stroke-width="1.5"></path><path d="M1309.12 402.18L1309.12 402.18" stroke="hsl(225, 16.7%, 100%)" stroke-width="1.5"></path><path d="M1309.12 402.18L1301.07 539.14" stroke="hsl(225, 16.7%, 100%)" stroke-width="1.5"></path><path d="M1301.07 539.14L1301.07 539.14" stroke="hsl(225, 16.7%, 100%)" stroke-width="1.5"></path><path d="M1301.07 539.14L1245.72 667.04" stroke="hsl(225, 16.7%, 100%)" stroke-width="1.5"></path><path d="M1245.72 667.04L1245.72 667.04" stroke="hsl(225, 16.7%, 100%)" stroke-width="1.5"></path><path d="M1245.72 667.04L1282.12 794.94" stroke="hsl(225, 16.7%, 100%)" stroke-width="1.5"></path><path d="M1282.12 794.94L1282.12 794.94" stroke="hsl(225, 16.7%, 100%)" stroke-width="1.5"></path><path d="M1282.12 794.94L1120.72 711.87" stroke="hsl(225, 16.7%, 100%)" stroke-width="1.5"></path><circle r="25" cx="220.5" cy="708.44" fill="url(#SvgjsRadialGradient2976)"></circle><circle r="25" cx="680.41" cy="651.88" fill="url(#SvgjsRadialGradient2976)"></circle><circle r="25" cx="659.36" cy="833.55" fill="url(#SvgjsRadialGradient2976)"></circle><circle r="25" cx="809.72" cy="558.58" fill="url(#SvgjsRadialGradient2976)"></circle><circle r="25" cx="962.16" cy="489.27" fill="url(#SvgjsRadialGradient2976)"></circle><circle r="25" cx="947.22" cy="960.31" fill="url(#SvgjsRadialGradient2976)"></circle><circle r="25" cx="1129.77" cy="355.48" fill="url(#SvgjsRadialGradient2976)"></circle><circle r="25" cx="1293.18" cy="-64.93" fill="url(#SvgjsRadialGradient2976)"></circle><circle r="25" cx="1310.18" cy="1002.93" fill="url(#SvgjsRadialGradient2976)"></circle><circle r="5" cx="-62.1" cy="847.73" fill="#f8f9fa"></circle><circle r="5" cx="-72.03" cy="943.2" fill="#f8f9fa"></circle><circle r="5" cx="40.51" cy="946.92" fill="#f8f9fa"></circle><circle r="5" cx="218.22" cy="993.57" fill="#f8f9fa"></circle><circle r="5" cx="395.64" cy="831.49" fill="#f8f9fa"></circle><circle r="5" cx="389.97" cy="976.28" fill="#f8f9fa"></circle><circle r="5" cx="536.25" cy="701.96" fill="#f8f9fa"></circle><circle r="5" cx="521" cy="800.97" fill="#f8f9fa"></circle><circle r="5" cx="489.95" cy="989.55" fill="#f8f9fa"></circle><circle r="5" cx="661.76" cy="525.01" fill="#f8f9fa"></circle><circle r="5" cx="694.65" cy="966.82" fill="#f8f9fa"></circle><circle r="5" cx="858.84" cy="637.68" fill="#f8f9fa"></circle><circle r="5" cx="789.25" cy="821.46" fill="#f8f9fa"></circle><circle r="5" cx="992.47" cy="-60.66" fill="#f8f9fa"></circle><circle r="5" cx="977.82" cy="64.38" fill="#f8f9fa"></circle><circle r="5" cx="990.11" cy="240.28" fill="#f8f9fa"></circle><circle r="5" cx="988.67" cy="347.91" fill="#f8f9fa"></circle><circle r="5" cx="1143.19" cy="-55.53" fill="#f8f9fa"></circle><circle r="5" cx="1121.19" cy="91.05" fill="#f8f9fa"></circle><circle r="5" cx="1144.38" cy="232.31" fill="#f8f9fa"></circle><circle r="5" cx="1120.72" cy="711.87" fill="#f8f9fa"></circle><circle r="5" cx="1155.21" cy="854.34" fill="#f8f9fa"></circle><circle r="5" cx="1137.83" cy="1009.49" fill="#f8f9fa"></circle><circle r="5" cx="1309.12" cy="402.18" fill="#f8f9fa"></circle><circle r="5" cx="1301.07" cy="539.14" fill="#f8f9fa"></circle><circle r="5" cx="1245.72" cy="667.04" fill="#f8f9fa"></circle><circle r="5" cx="1282.12" cy="794.94" fill="#f8f9fa"></circle></g><defs><mask id="SvgjsMask2974"><rect width="1200" height="900" fill="#ffffff"></rect></mask><linearGradient x1="50%" y1="0%" x2="50%" y2="100%" gradientUnits="userSpaceOnUse" id="SvgjsLinearGradient2975"><stop stop-color="#0e2a47" offset="0"></stop><stop stop-color="rgba(48, 145, 209, 1)" offset="1"></stop></linearGradient><radialGradient id="SvgjsRadialGradient2976"><stop stop-color="#ffffff" offset="0.1"></stop><stop stop-color="rgba(241, 242, 245, 1)" offset="0.2"></stop><stop stop-color="rgba(241, 242, 245, 0)" offset="1"></stop></radialGradient></defs></svg>